<!-- Generated by IcoMoon.io -->
<svg version="1.1" xmlns="http://www.w3.org/2000/svg" width="52" height="52" viewBox="0 0 32 32">
<path fill="grey" d="M3.075 0.25c-0.4 0.25-0.45 0.412-0.45 1.563 0 1.131 0.069 1.55 0.35 2.069 0.237 0.431 0.806 0.969 1.262 1.194l0.388 0.194v0.481c0 0.269 0.019 0.575 0.037 0.681l0.044 0.194h-1.962c-1.85 0-1.975 0.006-2.169 0.125-0.112 0.069-0.256 0.213-0.325 0.325-0.125 0.206-0.125 0.338-0.125 10.675 0 10.269 0 10.475 0.125 10.669 0.237 0.394 0.337 0.419 1.675 0.456l1.212 0.031 0.119 0.462c0.269 1.063 1.063 1.919 2.138 2.306 0.581 0.212 1.563 0.231 2.106 0.050 0.713-0.238 1.3-0.669 1.719-1.25 0.306-0.438 0.444-0.738 0.556-1.225l0.081-0.344h12.281l0.119 0.462c0.269 1.063 1.063 1.919 2.137 2.306 0.581 0.212 1.563 0.231 2.106 0.050 0.712-0.238 1.3-0.669 1.719-1.25 0.306-0.438 0.444-0.738 0.556-1.225l0.081-0.344 1.225-0.031c1.363-0.038 1.456-0.063 1.681-0.506 0.106-0.2 0.113-0.581 0.113-5.356v-5.137l-0.844-3.394c-0.581-2.313-0.906-3.512-1.031-3.775-0.219-0.45-0.731-0.981-1.169-1.219-0.637-0.35-0.781-0.363-4-0.363h-2.956v-0.925c0-1.031-0.056-1.206-0.45-1.45-0.194-0.119-0.319-0.125-2.119-0.125h-1.913l-0.031-0.769c-0.069-1.581-0.581-2.794-1.65-3.919-0.75-0.788-1.65-1.319-2.744-1.631-0.494-0.144-0.531-0.144-5.094-0.163-4.513-0.019-4.6-0.019-4.8 0.106zM12.781 2.081c1.287 0.456 2.181 1.356 2.644 2.663l0.169 0.475 0.019 2.7 0.019 2.706h-3.162c-3.35 0-3.406-0.006-3.744-0.3-0.213-0.194-0.35-0.581-0.35-1.031v-0.419h1.644c1.438 0 1.662-0.012 1.85-0.113 0.631-0.319 0.662-1.144 0.056-1.513-0.194-0.119-0.325-0.125-2.425-0.125-2.019 0-2.244-0.013-2.469-0.119-0.456-0.206-0.656-0.581-0.656-1.225v-0.406h2.644c2.387 0 2.656-0.013 2.85-0.112 0.631-0.319 0.662-1.144 0.056-1.513-0.2-0.119-0.325-0.125-3.425-0.125-2.987 0-3.237-0.013-3.469-0.119-0.456-0.206-0.656-0.581-0.656-1.225v-0.413l7.906 0.038 0.5 0.175zM6.225 8.569l0.4 0.2v0.506c0 0.613 0.138 1.219 0.356 1.6 0.219 0.387 0.737 0.906 1.119 1.125 0.625 0.363 0.756 0.375 4.838 0.375 4.106 0 3.981 0.012 4.275-0.394 0.125-0.169 0.131-0.275 0.15-1.894l0.019-1.713h2.744v13.25h-18.25v-13.25h3.956l0.394 0.194zM23.625 14.544c0 3.556 0.006 3.681 0.125 3.881 0.069 0.113 0.212 0.256 0.325 0.325 0.2 0.119 0.325 0.125 3.131 0.125h2.919v3.25h-0.669c-0.563 0-0.706 0.019-0.881 0.125-0.587 0.356-0.587 1.144 0 1.5 0.175 0.106 0.319 0.125 0.881 0.125h0.669v3.25h-1.531l-0.169-0.3c-0.387-0.694-1.069-1.256-1.844-1.525-0.625-0.212-1.631-0.2-2.212 0.025-0.781 0.306-1.425 0.837-1.781 1.469l-0.181 0.331h-12.813l-0.169-0.3c-0.387-0.694-1.069-1.256-1.844-1.525-0.625-0.212-1.631-0.2-2.213 0.025-0.781 0.306-1.425 0.837-1.781 1.469l-0.181 0.331h-1.531v-3.75h9.644c9.050 0 9.65-0.006 9.85-0.113 0.119-0.056 0.275-0.188 0.344-0.281 0.131-0.175 0.131-0.219 0.15-6.144l0.012-5.963h1.75v3.669zM27.938 11.012c0.156 0.081 0.337 0.231 0.413 0.344 0.087 0.125 0.375 1.156 0.8 2.875 0.369 1.469 0.681 2.725 0.7 2.781 0.031 0.106-0.1 0.113-2.219 0.113h-2.256v-6.25h1.144c1.063 0 1.163 0.012 1.419 0.137zM7.081 27c0.356 0.131 0.706 0.45 0.894 0.813 0.162 0.306 0.162 1.075 0 1.375-0.162 0.306-0.463 0.613-0.756 0.769-0.356 0.188-1.081 0.188-1.444 0-0.969-0.512-1.194-1.894-0.419-2.587 0.563-0.5 1.069-0.613 1.725-0.369zM26.081 27c0.356 0.131 0.706 0.45 0.894 0.813 0.163 0.306 0.163 1.075 0 1.375-0.163 0.306-0.462 0.613-0.756 0.769-0.356 0.188-1.081 0.188-1.444 0-0.969-0.512-1.194-1.894-0.419-2.587 0.563-0.5 1.069-0.613 1.725-0.369z"></path>
</svg>
